<svg width="1175" height="760" viewBox="0 0 1175 760" fill="none" xmlns="http://www.w3.org/2000/svg">
<path d="M452.5 756.6C442.4 751.9 435 741.3 435 731.8C435 727.2 435.1 727 437.9 727C441.1 727 442.9 728.9 448 737.2C450.1 740.6 452.3 742.6 455.9 744.5C462.5 747.8 464.3 747.7 468.8 743.6L472.5 740.2L473 708C473.5 676.1 473.5 675.8 475.7 674C478.3 671.9 481.7 672.4 482.4 674.9C482.7 675.8 483 690.2 483.2 707C483.4 740.6 483.1 743.1 477.7 750.2C470.7 759.3 462.6 761.4 452.5 756.6Z" fill="black"/>
<path d="M821.5 750.8C814.1 748.2 808.3 740.2 809.2 733.9C809.6 730.9 811 731.1 820.4 735.2C831.3 740 847.1 740.3 847 735.7C847 735 843.5 730.7 839.4 726C830.3 715.9 823.6 706.7 821.4 701.5C819.1 696 818 687.8 819 683.5C820.6 676.2 829.9 670 838.9 670C844.1 670.1 849.9 673.1 854.3 677.8C858.1 682.1 858.9 685.4 857 689.1C855.5 691.9 854.2 691.5 852.6 687.5C849.7 680.7 840.3 678 832.5 681.7C829.4 683.2 829 683.8 829 687.2C829 689.3 829.7 692.7 830.5 694.7C832.4 699.2 840.4 709.7 850 720.5C859.3 731 860.5 733.3 859.1 737.9C857.7 742.7 850.7 749.7 846.1 751C841.5 752.3 825.4 752.2 821.5 750.8Z" fill="black"/>
<path d="M624.4 743.9C619.3 741.4 616.2 729.6 618 718.8C619.3 710.4 625.8 697.3 631 692.6C635.8 688.3 641.6 687.6 645 691C647.1 693.1 647.7 698.4 646 699.5C645.5 699.8 645 699.3 645 698.3C645 693.5 638.5 692.4 634.4 696.5C631.8 699.1 627 708.4 627 710.9C627 711.9 627.9 712.1 630.3 711.6C632 711.2 637.1 710.7 641.5 710.3C651.8 709.5 651 710.6 636 718L624.9 723.5L625.3 727.7C625.6 730.1 626.3 732.7 627 733.5C629.1 736.1 634.5 735.2 642.6 731C651.4 726.4 654.3 724.2 653.6 722.3C652.9 720.5 657.4 720.6 659 722.4C662.1 726.2 650.4 739.2 640.5 742.9C634.6 745.1 627.8 745.5 624.4 743.9Z" fill="black"/>
<path d="M583.6 739.9C582.6 734.8 582.9 676.7 584 675C586.1 671.7 587.3 676.1 588.2 690.7C589.3 707.7 588.6 727.8 586.6 736.3C584.9 743.4 584.4 744 583.6 739.9Z" fill="black"/>
<path d="M1042.1 741.6C1041.5 740.9 1041.2 739.6 1041.5 738.7C1042.1 737.2 1040.4 719.1 1039.6 718.3C1039.4 718 1035.1 720.6 1030.1 723.9C1025.1 727.3 1020.6 730 1020.1 730C1018.6 730 1017 726.6 1017 723.6C1017 721.6 1018.4 720 1023.3 716.4C1026.7 713.8 1031.8 710.5 1034.6 708.9L1039.7 706L1040.2 694C1040.5 687.4 1041 681.7 1041.4 681.3C1041.7 681 1043.1 681.2 1044.3 681.7C1046.5 682.7 1046.8 683.6 1047.2 691.5C1047.5 696.2 1048 700.3 1048.2 700.5C1048.4 700.7 1054.6 698.4 1062 695.5C1069.4 692.5 1078 689.8 1081 689.5L1086.5 688.8L1077.5 693.8C1066.4 699.9 1055.6 706.4 1051.3 709.7L1048 712.1V723.3C1048 732.2 1047.6 735.4 1046 738.8C1043.9 743.5 1043.7 743.6 1042.1 741.6Z" fill="black"/>
<path d="M549.1 739.4C546.1 735.6 543.2 727.1 542.5 719.9C541.7 711.4 541.1 709 540.1 709C539.6 709 535.6 714.6 531.3 721.6C521.7 737 518.5 740.7 516.5 739C513.7 736.7 512.6 729.8 512.7 716.5C512.8 701.5 513.8 695.2 516.3 693.6C518.7 692.1 521.6 694.1 521.3 697.1C520 711.2 519.8 720 520.8 720C521.4 720 524.4 715.8 527.6 710.8C536.4 696.4 537.7 695 541.6 695C546.3 695 547.9 697.9 549 709.1C551.4 731.6 552.1 737.6 552.6 739.8C553.4 742.8 551.6 742.6 549.1 739.4Z" fill="black"/>
<path d="M699.7 739.6C691.3 736.6 685 729 692.2 730.4C693.9 730.7 698.4 731.3 702.1 731.7C710.3 732.4 712 731.4 712 726.1C712 723.2 711.3 721.7 708.9 719.4C703 713.9 700 708.2 700 702.3C700 697.8 700.5 696.5 703.2 693.4C708.5 687.3 716 685.4 721.9 688.5C725.3 690.2 727.5 694.9 726.4 698.2C725.7 700.4 725.6 700.4 724.4 697.3C721.6 690.5 714 690.1 707.3 696.3C702.8 700.3 705.2 707.3 713.8 715.4C719.2 720.5 720.1 727 716.4 734.2C713.6 739.6 706.3 741.9 699.7 739.6Z" fill="black"/>
<path d="M933.6 738.1C932.1 736.5 929.9 727.6 927.5 713.7C927.2 711.5 926.4 710 925.7 710.3C925.1 710.5 923.2 715 921.5 720.4C918.3 730.2 913.6 737.1 911.1 735.6C909.8 734.8 908.6 730.1 907 720.2C906.3 716.1 905.4 713 904.8 713.2C904.2 713.4 902.5 717.8 901 722.9C896.9 736.7 892.4 741.7 890.1 734.8C889.3 732.2 889.4 727.7 890.5 716.3C892.3 698.2 892.5 697.7 895.7 698.5C897.1 698.8 899.6 698.5 901.5 697.9C905.5 696.4 910.1 697.9 912.5 701.6C914.6 704.8 915.2 704.6 917.5 700.4C919.8 696 922.3 694.6 926.4 695.4C933.9 696.8 936.7 701.7 940 719.1L942.1 730.2L939.8 734.8C937.1 740.2 936 740.8 933.6 738.1Z" fill="black"/>
<path d="M1151.6 734.7C1150.1 732.3 1146.7 723.4 1144 714.9C1141.2 706.4 1138.6 698.8 1138 698C1136.5 695.5 1135.4 697.9 1133.2 708.3C1130.1 722.8 1123.8 735 1119.3 735C1116.1 735 1115.8 730 1117.5 702C1119.3 670.4 1119.6 668 1121.4 668C1123.5 668 1123.9 669.9 1124.6 684.1L1125.3 697.3L1127.7 692.6C1130.5 687.2 1133.4 685.5 1138.4 686.4C1141.1 686.9 1142.7 688.1 1144.5 690.8C1147.7 695.7 1154.5 713.8 1156 721.5C1157.4 728.6 1157 738.2 1155.3 738.7C1154.7 738.9 1153 737.1 1151.6 734.7Z" fill="black"/>
<path d="M983.7 736.3C982.2 733.9 979 697.5 979 683.3C979 679.4 979.2 679 981.4 679C983.6 679 983.8 679.5 984.8 687.8C987.1 705.6 988.2 721.5 987.5 727.5C986.9 733.9 984.9 738.3 983.7 736.3Z" fill="black"/>
<path d="M971 669C971 667.9 979.9 662.5 980.6 663.3C981.3 664 973.8 670 972.3 670C971.6 670 971 669.6 971 669Z" fill="black"/>
<path d="M18.2 646C14.5 643.2 11.9 639.8 8.59998 633.8C1.09998 619.9 0.5 616.6 0.5 592.5C0.6 574.3 0.899988 569.5 3.29999 555.9C15.5 485.9 52.3 402.6 99 339.5C101.6 335.9 102.1 333.9 103.9 320.5C113.6 249.1 123.6 115.3 125.7 30.2001C126.2 10.0001 126.6 3.50006 127.7 2.50006C129.3 0.80006 137.1 -0.399916 140.4 0.400084C145.2 1.60008 146 3.50006 146 13.0001C146 30.5001 140.3 139.9 136.9 187C134.3 224.2 128.4 288.5 126.4 302.6L125.8 306.8L135.1 297.8C146.3 287 158.9 277 165.6 273.6C172.1 270.4 186.2 266.8 193 266.7C197.1 266.7 199.8 267.3 203.7 269.4C212.9 274.1 216.4 281.2 219.1 300C220.6 310.1 221 376.4 219.7 391L219 398.5L232.5 365.1C248.3 326 249.6 323.5 254.8 322C261.2 320.2 271 318.8 272.3 319.4C277.1 321.8 279.7 324.1 281.2 327C282.1 328.9 284.5 340.4 286.5 352.4C293.3 394.3 298.9 415 308.6 434.3C312.3 441.6 317.5 449 319 449C319.4 449 323 446 326.9 442.4C348.9 422.1 371.7 371 394.3 292C409.7 238.4 417.4 203.6 419 181.1C420.8 155.8 423.8 138.3 427.2 133.8C428.6 131.8 436.3 129.6 445.1 128.5C449.5 128 450.9 128.1 451.9 129.4C452.7 130.3 454 131 454.9 131C458.2 131 459 133.2 459 142.8C459 153 457.3 165.9 453.4 186.5C449.7 205.7 448.8 225.7 450 268C451.1 304.7 452.7 330.9 455.5 354C461.3 401.1 471 431.6 482.2 438C484.8 439.4 485.2 439.2 491.9 434.6C513.5 419.9 537.2 382.4 557.7 330.5C568.7 302.5 572.7 289.9 573.4 279.6C574.7 263.5 577.5 251.6 580.9 248.6C582.9 246.8 590.6 244.6 598.6 243.5C602.5 243 603.9 243.2 604.9 244.4C605.7 245.3 607.3 246 608.5 246C612.6 246 613.3 248.1 612.7 259.8C612.4 266.5 611.2 274.4 609.5 281C607.2 290.2 606.9 292.8 607.3 302C608.9 334.5 623.2 370.4 642.8 391.2C654.4 403.5 662.7 407.2 669.4 403C678.7 397.3 686.6 384.5 694.5 362.5C703.8 336.5 706.2 330.3 710.5 321.5C715 312 721.3 303.9 726 301.5C730.8 299 744.2 295.9 752.6 295.3C758.8 294.9 761.9 295.1 766.1 296.5C774.1 299.1 789.5 307 807.5 317.8C834.7 334 855 342.8 875.5 347.1C878.9 347.9 887.9 348.4 896 348.4C907.9 348.3 912.8 347.8 923.3 345.6C938.7 342.3 959 336.8 982.2 329.6C1015.2 319.4 1035.8 314.6 1067.5 309.9C1075.8 308.7 1082.9 307.4 1083.3 307C1083.8 306.6 1082.8 301.3 1081.1 295.4C1073 266.6 1069.7 244.1 1069.6 217.5C1069.5 194 1070.1 191.9 1077.1 190C1086 187.6 1089.2 191.6 1094 210.8C1096.7 221.6 1105.6 268.4 1109.5 293.1L1111.2 303.6L1114 303.2C1116.7 302.8 1116.9 302.3 1121 286.2C1129.3 253.5 1136.3 233 1140.5 229C1141.8 227.8 1145.6 226.1 1148.9 225.4C1154.6 224 1155.3 224.1 1159 226C1166.1 229.6 1169.7 240.8 1172.4 268.5C1176.7 311.5 1174.8 351 1166.9 382.3C1163.4 396.1 1160 404.4 1157.1 406C1155.3 406.9 1154.4 406.6 1151.5 404.4C1148.1 401.9 1147.9 401.8 1146.6 403.5C1144.4 406.5 1140.3 404.5 1132.5 396.7C1121.3 385.4 1107.8 363.6 1096.5 338.5L1092.4 329.2L1082.4 336.7C1059.5 354 1042.6 364.2 1026.4 370.4C1011 376.3 952.5 389.8 923.5 394.2C918.3 394.9 906.7 395.5 896 395.4C878.6 395.4 876.8 395.2 865.9 392.3C843.6 386.4 825.3 377.3 791 355.2C761.3 336.2 753 332.8 745.3 336.7C739.8 339.5 736.4 345.9 727.6 369.7C719.1 392.6 710.4 411.6 704.2 420.7C690.7 440.6 669.5 448.5 649.6 441C638 436.6 620.4 421.4 609.8 406.5C603.7 398 591.9 376.2 587.5 365.5L583.3 355.2L580.5 361.9C579 365.5 572.9 378 567.1 389.5C545.6 432.1 524.2 458.8 503.2 469.2C495.9 472.9 493.9 473.4 486.5 473.8C478.8 474.2 477.5 474 472.4 471.5C454.4 462.7 438.6 434.4 430.6 396.4C427.3 380.6 423.4 353.3 421.8 334.8L420.6 320L413.9 340.3C391 409.9 366.1 458.2 344.4 475.1C335.8 481.7 331.4 484.2 325.5 485.5C315.5 487.9 309.3 485.3 298.6 474.7C292.7 468.7 290.2 465.2 284.3 454C280.4 446.6 275.5 436 273.5 430.5C269.4 419.4 262.9 394.7 261 382.6L259.7 374.8L258.3 378.2C257.5 380 252.2 393 246.5 407.1C232.8 440.9 228 451.9 220.4 467.7C213.7 481.5 209.1 488 205.8 488C201.9 488 196.4 482.3 192 473.6L187.7 465.1L188.3 445.8C188.7 435.2 189.5 413.7 190.1 398C191.2 371.3 190.7 317.1 189.4 307.3L188.8 303.1L184.6 305.2C173.2 311 148.2 334.9 131.1 356.4C115.9 375.5 116.7 373.6 113 396.5C94.6 511.1 62.5 614.8 36.8 642.6C32.3 647.5 28.3 650 25.1 650C24.1 650 20.9 648.2 18.2 646ZM35.4 597.8C47.2 576.1 61.3 534.8 73.5 486C78.2 467.6 88.1 421.8 87.6 421.3C87.1 420.8 73.1 447.6 67.7 459.5C45.3 508.4 31.8 556.1 30.3 592.3C30 599.8 30 606 30.3 606C30.6 606 32.9 602.3 35.4 597.8ZM1144 383.5C1150 373 1154.1 349.9 1155.5 318.5C1156.4 298.3 1153.5 254.7 1151 250C1149.7 247.6 1140.7 278.2 1130.5 320.4C1127.4 333 1123.8 346.8 1122.3 351.1L1119.7 359L1125.3 368.2C1130.3 376.6 1139.4 389 1140.4 389C1140.7 389 1142.3 386.5 1144 383.5ZM1114.2 314.5C1114.5 313.1 1114.3 312 1113.9 312C1113.4 312 1113 313.1 1113 314.5C1113 315.9 1113.2 317 1113.4 317C1113.6 317 1114 315.9 1114.2 314.5ZM1091.1 271.9C1088.9 259 1086.1 244 1085 238.5L1083 228.5L1083.6 237C1084.5 251.7 1093.1 297.2 1094.7 295.7C1094.9 295.4 1093.3 284.7 1091.1 271.9Z" fill="black"/>
</svg>
